<?xml version="1.0" encoding="UTF-8"?>
<svg width="92px" height="92px" viewBox="0 0 92 92" version="1.1" xmlns="http://www.w3.org/2000/svg" xmlns:xlink="http://www.w3.org/1999/xlink">
    <title>Group 4</title>
    <g id="Website-Designs" stroke="none" stroke-width="1" fill="none" fill-rule="evenodd">
        <g id="22.02.-Locations-North-America" transform="translate(-439.000000, -1782.000000)">
            <g id="Solutions" transform="translate(0.000000, 1591.000000)">
                <g id="Group-Copy" transform="translate(440.000000, 186.000000)">
                    <g id="Group-4" transform="translate(0.000000, 6.000000)">
                        <circle id="Oval-Copy-5" stroke="#F4F4F2​" cx="45" cy="45" r="45"></circle>
                        <g id="Insurance-Solutions-White" transform="translate(26.000000, 26.000000)">
                            <g id="Group-3">
                                <polygon id="Path-8" fill-opacity="0.2" fill="#979797" points="20.1033463 42.3024757 20.1033463 20.277696 35.8790294 20.277696 34.9302072 23.6182668 32.9451022 28.5550004 29.7683439 33.5048405 25.6760612 38.2731937 21.6967784 41.2945766"></polygon>
                                <polygon id="Path-7" fill-opacity="0.2" fill="#979797" points="20.0016045 3.34578108 20 20.277696 4.3902439 20.277696 3.19048227 16.4965916 3.19048227 12.6516916 3.19048227 7.35544281 9.35483227 6.99319724 14.7469147 5.57734493"></polygon>
                                <path d="M19.5371096,0.0496666526 C19.7451055,-0.0198155731 20.0244152,-0.0142701146 20.2296734,0.0530246273 L20.2324798,0.0464871738 L20.2733819,0.0687431714 C20.3088821,0.0827177387 20.3415378,0.0987344441 20.3704536,0.11671151 L20.3704536,0.11671151 L20.368,0.119 L20.6938693,0.295066532 C26.3600344,3.31834773 31.1591406,4.76974096 38.6660442,4.84403639 L39.2807165,4.84704644 L39.766622,4.84704644 L39.7691676,6.09251617 C39.7532707,13.1149384 39.1137418,18.6915459 37.1223297,24.6285337 C34.2948322,33.0581393 29.1115373,40.0871722 20.9825903,45.3173304 L20.605,45.5564872 C20.154115,45.8915372 19.5600468,45.8746999 19.0728566,45.5095944 L18.991,45.4414872 L18.8219833,45.334623 C10.6924719,40.1041317 5.50195485,33.071087 2.66467391,24.6376083 C0.664678837,18.6928619 0.0165827276,13.0869998 -2.84217094e-14,6.08962165 L0.0025025739,4.84704644 L0.488408134,4.84704644 C8.4840632,4.84704644 13.4208561,3.35074565 19.3710421,0.136251158 C19.4078411,0.105926394 19.4523462,0.0818744394 19.5017527,0.0624824709 C19.5145324,0.0585088115 19.5255868,0.0525009443 19.5366448,0.0464871738 Z M19.8734633,0.978833233 L20.0016045,0.906911407 C14.1260694,4.10225654 9.20763549,5.67877826 1.59824092,5.81594641 L0.975294045,5.82391753 C0.976111212,12.8480983 1.60452034,18.4258365 3.58905539,24.3246298 C6.4124292,32.7167712 11.6131384,39.6742008 19.8204072,44.8101048 C19.8731496,44.8232461 19.9216333,44.8207121 19.9659467,44.8051406 C28.1832615,39.6674798 33.3821095,32.7104014 36.1976658,24.3163958 C38.1032407,18.635314 38.7476334,13.2727932 38.7914323,6.57383076 L38.7938609,5.82391776 L38.1709126,5.81594693 C30.7789133,5.68270125 25.926313,4.19117256 20.2688792,1.17683819 L19.908592,0.983996806 C19.8910517,1.00817134 19.9072327,1.00375365 19.8734633,0.978833233 Z" id="Combined-Shape" fill="#F4F4F2​" fill-rule="nonzero"></path>
                                <path d="M19.6996583,2.67434923 C19.8830696,2.61864831 20.1160158,2.61849205 20.3050844,2.66534769 L20.3072427,2.66067469 L20.3326481,2.67260031 C20.400634,2.6915594 20.4620402,2.71684304 20.5121951,2.7480245 L20.5121951,2.7480245 L20.5020244,2.76431299 L20.7610643,2.90323999 C25.7295268,5.53015774 29.9513136,6.7958536 36.5253924,6.86803387 L37.1296023,6.87131246 L37.5587275,6.87131246 L37.5609756,7.9637314 C37.5469363,14.1231963 36.9821394,19.0145168 35.2234333,24.221932 C32.7309666,31.601965 28.1656871,37.7580818 21.0095561,42.3428633 L20.6000244,42.600313 L20.6270244,42.5836747 L20.638844,42.600635 C20.2408186,42.8963055 19.7206675,42.8834323 19.2921043,42.5618176 L19.1776548,42.4664496 L19.1830244,42.4596747 L19.0217098,42.3580293 C11.8650595,37.7729441 7.29340941,31.6133154 4.79231848,24.2298915 C3.02603234,19.0156711 2.45366935,14.0986909 2.43902439,7.96119258 L2.44123453,6.87131246 L2.87035971,6.87131246 C9.99708912,6.87131246 14.3721241,5.53446111 19.6927193,2.66067469 Z M20.0000244,3.47031299 L20.1033463,3.41536484 C14.9143954,6.2180468 10.5707039,7.60083609 3.85050326,7.72114819 L3.30035069,7.72813977 C3.30107236,13.8891471 3.8560489,18.7814594 5.60868159,23.9553737 C8.10278141,31.3181592 12.6975095,37.421882 19.9489975,41.9269969 C19.9914662,41.9372753 20.0301566,41.935366 20.0658549,41.9238004 C27.3260935,37.416582 31.9195055,31.3129316 34.4068208,23.9481515 C36.0849256,18.9793915 36.6555608,14.288456 36.6971498,8.43609078 L36.6996381,7.72813997 L36.1494843,7.72114865 C29.6329121,7.60448532 25.3510098,6.30069646 20.3661003,3.66624725 L20.0000244,3.47031299 Z" id="Combined-Shape" fill="#F4F4F2​" fill-rule="nonzero"></path>
                                <line x1="20" y1="3.34578108" x2="20" y2="41.7117385" id="Line-2" stroke="#F4F4F2​" stroke-linecap="square" stroke-dasharray="3"></line>
                                <line x1="4.3902439" y1="20.277696" x2="35.6097561" y2="20.277696" id="Line-3" stroke="#F4F4F2​" stroke-linecap="square" stroke-dasharray="3"></line>
                            </g>
                        </g>
                    </g>
                </g>
            </g>
        </g>
    </g>
</svg>